<svg xmlns="http://www.w3.org/2000/svg" width="240" height="40" viewBox="0 0 240 40" fill="none" class="injected-svg" data-src="https://cdn.buttercms.com/RPFgn2K7S0mqulqd9gBF" xmlns:xlink="http://www.w3.org/1999/xlink">
<path d="M180.932 19.673L179.797 19.9738C178.719 16.3641 176.909 14.8177 174.356 14.8177C172.563 14.8177 171.292 15.9763 171.292 17.8258C171.292 19.5861 172.767 20.5331 176.777 22.123C180.469 23.4555 182 25.0865 182 27.9387C182 32.2782 178.527 35 172.824 35C170.081 35 166.974 34.3984 165.222 33.711L165.003 27.6813L166.082 27.4663C167.701 31.5919 169.773 33.1528 172.471 33.1528C174.805 33.1528 176.031 31.5629 176.031 29.9296C176.031 28.2963 175.082 27.3515 171.435 26.0636C167.962 24.9461 165.584 23.4855 165.584 19.8613C165.584 16.2961 168.779 13.2724 174.209 13.2724C176.777 13.2724 179.112 13.7024 180.644 14.3898L180.932 19.673ZM157.441 21.5637C157.572 18.7282 156.987 14.6316 154.611 14.6316C152.174 14.6316 150.831 18.4564 150.788 21.7364L157.441 21.5637ZM155.194 13.2568C161.174 13.2568 164.064 17.5539 164.108 23.197H150.644C150.599 28.196 153.3 31.9763 158.348 31.9763C160.549 31.9763 161.82 31.3746 163.162 30.4299L163.789 31.1173C162.314 33.0937 159.25 34.9833 155.164 34.9833C148.599 34.9833 144.047 30.558 144.047 24.3122C144.033 18.6692 147.767 13.2545 155.194 13.2545V13.2568ZM135.79 23.7106C135.659 19.2541 133.997 15.7045 130.8 15.7045C130.04 15.7045 129.458 15.8337 128.553 16.1345L128.814 33.3076C129.136 33.4369 129.892 33.5227 130.434 33.5227C133.541 33.5227 135.788 29.211 135.788 23.7117L135.79 23.7106ZM142.455 23.3775C142.455 30.4388 137.916 34.9933 130.215 34.9933C127.472 34.9933 124.627 34.5633 122.162 34.0051C122.381 31.1696 122.381 13.6088 122.162 10.2999C121.943 8.58079 121.447 7.76414 120.09 7.59256L119.185 7.50678V6.71909L128.684 5C128.638 6.44836 128.552 10.2999 128.552 14.811C130.216 13.9943 131.747 13.5219 133.818 13.5219C138.764 13.5219 142.443 17.6475 142.443 23.3763L142.455 23.3775ZM118.27 19.5415C115.338 17.6509 112.188 18.4675 111.559 19.5415C111.282 22.8505 111.34 27.9353 111.604 30.5558C111.736 32.2749 112.232 33.0046 113.588 33.1338L115.381 33.3054V34.4229H101.964V33.3054L103 33.1338C104.298 33.0046 104.751 32.276 104.838 30.5558C105.16 27.7627 105.247 21.9046 104.838 18.6814C104.751 16.8342 104.298 16.1457 103 15.9741L101.964 15.8449V15.0717L111.549 13.2668L111.417 18.0798C113.664 13.0952 118.129 12.4936 120.55 13.8261L118.27 19.5415ZM86.816 24.154C86.816 29.4104 88.2606 33.7076 91.1783 33.7076C94.3298 33.7076 95.2343 29.4962 95.2343 24.154C95.2343 18.8118 93.8339 14.6439 90.8719 14.6439C87.6944 14.6439 86.816 18.726 86.816 24.154ZM102.018 24.0682C102.018 30.0979 97.9624 34.9866 90.7267 34.9866C83.6066 34.9866 80.0183 30.3318 80.0183 24.2298C80.0183 18.2425 84.0742 13.2579 91.31 13.2579C98.43 13.2579 102.018 17.9417 102.018 24.0571V24.0682ZM83.3842 13.6868L81.9089 14.1169C80.6538 9.891 78.4363 7.48561 74.6141 7.48561H69.6242C69.3473 10.2932 69.2157 14.6327 69.3473 19.3176L72.6724 19.146C74.9194 19.146 75.867 17.5562 76.4174 15.2466H77.6725V25.0152H76.3958C75.8557 22.6533 74.9205 21.0489 72.6509 20.9186L69.3258 20.874C69.3258 24.3545 69.3711 27.3337 69.6027 29.1386C69.8217 31.7167 70.5514 32.891 72.4772 33.135L74.2862 33.3065V34.424H58V33.3065L59.3573 33.135C61.2388 32.8787 62.0128 31.7167 62.2318 29.1386C62.595 24.9272 62.6858 15.9329 62.2318 10.9338C62.0128 8.25993 61.24 7.19594 59.3573 6.98091L58 6.76588V5.6072H83.3524L83.3842 13.6868Z" fill="#949494"></path>
</svg>