<svg width="25" height="24" viewBox="0 0 25 24" fill="none" xmlns="http://www.w3.org/2000/svg">
<g clip-path="url(#clip0)">
<path fill-rule="evenodd" clip-rule="evenodd" d="M24.02 12.2722C24.02 11.4213 23.9436 10.6031 23.8018 9.81763H12.5V14.4594H18.9582C18.68 15.9595 17.8345 17.2304 16.5636 18.0813V21.0922H20.4418C22.7109 19.0031 24.02 15.9267 24.02 12.2722Z" fill="#4285F4"/>
<path fill-rule="evenodd" clip-rule="evenodd" d="M12.5 23.9993C15.74 23.9993 18.4564 22.9248 20.4418 21.092L16.5637 18.0811C15.4891 18.8011 14.1146 19.2266 12.5 19.2266C9.37456 19.2266 6.7291 17.1157 5.78546 14.2793H1.77637V17.3884C3.75091 21.3102 7.8091 23.9993 12.5 23.9993Z" fill="#34A853"/>
<path fill-rule="evenodd" clip-rule="evenodd" d="M5.78545 14.2814C5.54545 13.5614 5.40909 12.7923 5.40909 12.0014C5.40909 11.2105 5.54545 10.4414 5.78545 9.7214V6.6123H1.77636C0.963636 8.2323 0.5 10.065 0.5 12.0014C0.5 13.9378 0.963636 15.7705 1.77636 17.3905L5.78545 14.2814Z" fill="#FBBC05"/>
<path fill-rule="evenodd" clip-rule="evenodd" d="M12.5 4.77273C14.2618 4.77273 15.8436 5.37818 17.0873 6.56727L20.5291 3.12545C18.4509 1.18909 15.7346 0 12.5 0C7.8091 0 3.75091 2.68909 1.77637 6.61091L5.78546 9.72C6.72909 6.88364 9.37455 4.77273 12.5 4.77273Z" fill="#EA4335"/>
</g>
<defs>
<clipPath id="clip0">
<rect width="24" height="24" fill="white" transform="translate(0.5)"/>
</clipPath>
</defs>
</svg>
