<svg xmlns="http://www.w3.org/2000/svg" width="240" height="40" viewBox="0 0 240 40" fill="none" class="injected-svg" data-src="https://cdn.buttercms.com/TNMO23JUSCa6GNPc0xuD" xmlns:xlink="http://www.w3.org/1999/xlink">
<path d="M59.2509 15.2489H77.3928V6H59.2509V15.2489Z" fill="#949494"></path>
<path d="M23 6V15.2489H32.0548V33.7466H41.1096V15.2489H50.1968V6H23Z" fill="#949494"></path>
<path d="M50.1969 33.7467H77.3937V24.4979H59.2517V15.249H50.1969V33.7467Z" fill="#949494"></path>
<path d="M100.516 12.9851H87.192V16.8334H91.6547V28.8957H96.0528V16.8334H100.516V12.9851Z" fill="#949494"></path>
<path d="M105.527 16.7041C102.39 16.7041 100.062 18.8061 100.062 22.9455C100.062 26.5997 102.035 29.1545 105.624 29.1545C107.5 29.1545 109.02 28.6694 110.475 27.7962L108.923 25.1768C107.726 25.7913 106.886 26.0176 105.818 26.0176C104.719 26.0176 103.943 25.4355 103.781 24.1096H110.799C110.831 23.9156 110.831 23.6569 110.831 23.3012C110.863 18.8708 108.826 16.7041 105.527 16.7041ZM103.846 21.5549C103.975 20.3584 104.492 19.7439 105.43 19.7439C106.627 19.7439 107.047 20.3584 107.241 21.5549H103.846Z" fill="#949494"></path>
<path d="M118.625 25.8236C117.526 25.8236 116.943 24.8534 116.943 22.9455C116.943 21.0698 117.461 20.0026 118.528 20.0026C119.401 20.0026 119.789 20.4877 120.371 21.5549L123.185 19.4205C122.15 17.7389 120.856 16.7041 118.593 16.7041C114.777 16.7041 112.901 19.2265 112.901 22.8808C112.901 26.8908 115.003 29.1221 118.496 29.1221C120.598 29.1221 121.891 28.3137 123.282 26.2763L120.695 24.239C119.919 25.4032 119.401 25.8236 118.625 25.8236Z" fill="#949494"></path>
<path d="M132.725 16.7045C131.302 16.7045 130.461 17.1895 129.717 17.7393V12.3387L125.61 13.988V28.9285H129.717V22.105C129.717 20.6174 130.235 20.197 131.108 20.197C131.949 20.197 132.466 20.6174 132.466 22.1373V28.9285H136.573V21.6199C136.573 18.4831 135.312 16.7045 132.725 16.7045Z" fill="#949494"></path>
<path d="M146.437 25.3062C144.529 25.3062 143.753 23.3659 143.753 20.9405C143.753 18.418 144.561 16.5747 146.405 16.5747C147.86 16.5747 148.41 17.5126 148.959 19.0001L152.969 17.4155C151.87 14.408 150.318 12.7264 146.405 12.7264C142.136 12.7264 139.128 15.8309 139.128 20.9405C139.128 25.6619 141.651 29.1545 146.372 29.1545C150.156 29.1545 151.935 27.1171 153.002 25.0475L149.283 23.0748C148.41 24.5624 147.828 25.3062 146.437 25.3062Z" fill="#949494"></path>
<path d="M159.598 17.836V16.9628H155.491V28.8958H159.598V22.3957C159.598 20.9405 160.213 20.4554 161.215 20.4554C162.024 20.4554 162.606 20.8758 163.123 21.4579L164.094 17.2215C163.608 16.9305 163.026 16.7041 162.153 16.7041C161.086 16.7041 160.278 17.1568 159.598 17.836Z" fill="#949494"></path>
<path d="M172.857 23.7862C172.857 25.2738 172.34 25.6942 171.499 25.6942C170.658 25.6942 170.141 25.2738 170.141 23.7539V16.9628H166.034V24.2713C166.034 27.4082 167.295 29.1544 169.915 29.1544C171.305 29.1544 172.178 28.6694 172.89 28.1196V28.9281H176.997V16.9951H172.89V23.7862" fill="#949494"></path>
<path d="M187.054 16.7041C185.631 16.7041 184.79 17.1892 184.047 17.7389V16.9305H179.94V28.8634H184.047V22.04C184.047 20.5524 184.564 20.132 185.437 20.132C186.278 20.132 186.795 20.5524 186.795 22.0723V28.8634H190.903V21.5549C190.903 18.4827 189.674 16.7041 187.054 16.7041Z" fill="#949494"></path>
<path d="M199.052 25.8236C197.952 25.8236 197.37 24.8534 197.37 22.9455C197.37 21.0698 197.888 20.0026 198.922 20.0026C199.795 20.0026 200.184 20.4877 200.766 21.5549L203.579 19.4205C202.544 17.7389 201.251 16.7041 198.987 16.7041C195.171 16.7041 193.295 19.2265 193.295 22.8808C193.295 26.8908 195.397 29.1221 198.89 29.1221C200.992 29.1221 202.286 28.3137 203.676 26.2763L201.089 24.239C200.378 25.4032 199.828 25.8236 199.052 25.8236Z" fill="#949494"></path>
<path d="M213.151 16.7045C211.728 16.7045 210.887 17.1895 210.144 17.7393V12.3387L206.036 13.988V28.9285H210.144V22.105C210.144 20.6174 210.661 20.197 211.534 20.197C212.375 20.197 212.892 20.6174 212.892 22.1373V28.9285H216.999V21.6199C217.032 18.4831 215.77 16.7045 213.151 16.7045Z" fill="#949494"></path>
</svg>