<svg xmlns="http://www.w3.org/2000/svg" width="240" height="40" viewBox="0 0 240 40" fill="none" class="injected-svg" data-src="https://cdn.buttercms.com/cQNDd5NSQe1TVbQ4WsUP" xmlns:xlink="http://www.w3.org/1999/xlink">
<path d="M58.4727 10V14.162H57.6505C57.2389 14.0234 57.1018 14.3006 57.1018 14.5784C55.8675 18.8795 54.496 23.0421 53.1241 27.337C52.8501 28.3083 52.5755 29.2796 52.1638 30.2509C52.1638 30.3896 51.8898 30.5282 51.7522 30.5282H45.4366L45.2995 30.1118L40.4981 14.5731C40.361 14.1568 40.224 14.1568 39.8129 14.1568H39V10H47.7787V14.162H45.9956L48.8765 25.6773H49.0135L52.1685 14.162H50.3855V10H58.4727ZM72.3321 15.5497H78.2304L78.3674 17.631C78.7791 17.2146 79.0526 16.7988 79.3277 16.521C80.9732 15.1339 82.8938 14.8567 84.9514 15.5497C86.4604 16.1047 87.1461 17.3532 87.1461 19.0182V26.3709H88.3805V30.5329H81.7908V21.238C81.7908 20.4058 81.5167 19.9895 80.968 19.8509C80.2828 19.7123 79.7336 19.8509 79.3225 20.4058L79.0485 20.8222L78.9114 21.2386V26.3719H79.8717V30.5339H72.3264V26.3703H73.4237V19.7117H72.3264L72.3321 15.5497ZM108.269 19.5731H107.309V15.4111H113.756V26.3709H114.99V30.5329H108.955V29.0066C108.681 29.2838 108.543 29.5616 108.269 29.6996C106.761 31.0868 104.155 31.364 102.371 30.5318C101 29.8388 100.314 28.7283 100.314 27.202L100.177 20.2651V19.7102H98.9421V15.5497H105.526V24.423C105.526 24.8393 105.526 25.2552 105.663 25.5329C105.8 26.0879 106.348 26.3651 106.898 26.3651C107.447 26.3651 107.858 26.0879 108.132 25.5329C108.269 25.3943 108.269 25.1165 108.269 24.8398V19.5731ZM71.3661 24.0187H62.1769C62.1769 24.8509 62.1769 25.6831 62.5885 26.3772C62.8626 26.9321 63.5488 27.2094 64.0974 27.2094C64.6461 27.2094 65.3318 26.9321 65.6064 26.238C65.7434 25.9608 65.7434 25.6831 65.8805 25.2667H70.9555C70.8185 26.9311 70.1328 28.3188 68.7608 29.2901C67.8276 29.9641 66.7435 30.3931 65.6059 30.5387C64.0969 30.8159 62.4509 30.6773 60.9425 30.2614C58.8849 29.5684 57.5135 28.1802 56.9648 26.238C56.2796 24.0181 56.2796 21.7983 56.9648 19.5784C57.7875 16.9427 59.7081 15.4164 62.4514 15C63.6858 14.8614 64.9202 14.8614 66.1551 15.2772C68.8984 16.1094 70.4074 17.9129 70.9566 20.8269C71.2306 21.9369 71.2306 22.9082 71.3682 24.0181L71.3661 24.0187ZM62.3134 21.1047H65.8794C65.8794 20.2725 65.8794 19.5784 65.0567 19.162C64.3715 18.7457 63.6853 18.7457 63.1361 19.162C62.3134 19.5784 62.3134 20.272 62.3134 21.1047ZM142.822 24.0187H133.638C133.638 24.8509 133.638 25.6831 134.05 26.3772C134.462 27.0713 135.01 27.2094 135.696 27.2094C136.381 27.2094 136.93 26.793 137.204 26.238L137.479 25.4058H142.554C142.279 28.4579 140.085 30.5392 137.067 30.8169C135.558 30.9556 134.186 30.9556 132.815 30.4006C130.757 29.7075 129.386 28.3193 128.7 26.2386C128.015 24.0187 128.015 21.9374 128.7 19.7175C129.523 16.9427 131.581 15.5555 134.324 15.1391C135.558 15.0005 136.929 15.0005 138.165 15.4164C140.771 16.2485 142.142 18.0521 142.691 20.5497C142.828 21.7983 142.828 22.9082 142.828 24.0181L142.822 24.0187ZM133.907 21.1047H137.473C137.473 19.5784 136.788 18.7462 135.552 18.8848C134.455 19.0234 133.769 19.8561 133.907 21.1047ZM89.0599 15.4106H90.7054V12.4966C90.7054 11.9416 90.8424 11.8035 91.3906 11.6644L95.6429 10.6931V15.4101H97.9746V19.5721H95.6429V25.4001C95.7799 26.3714 96.4656 26.7872 97.2884 26.6486C97.4254 26.6486 97.5624 26.6486 97.837 26.51V29.1457C97.837 30.3943 97.837 30.3943 96.6027 30.5329C95.3683 30.6715 94.1339 30.8101 92.7615 30.5329C90.9784 30.1165 90.1557 29.0066 90.1557 27.2031V19.5742H88.9213C89.0584 18.3256 89.0584 16.9385 89.0584 15.4122L89.0599 15.4106ZM116.081 30.5334V26.3709H117.315V19.7117H116.081V15.5497H121.842C121.842 16.2428 121.979 17.076 121.979 17.9082C122.116 17.7696 122.116 17.631 122.116 17.4919C122.528 16.2433 123.487 15.5492 124.722 15.4106H126.642C126.713 15.4157 126.78 15.4466 126.83 15.4975C126.881 15.5484 126.911 15.616 126.916 15.6878V20.2662C126.231 20.2662 125.407 20.1276 124.722 20.2662C123.213 20.5434 122.527 21.3761 122.39 22.9019V26.2317H124.035V30.3938C121.567 30.5324 118.824 30.5324 116.08 30.5324L116.081 30.5334ZM154.674 10.1486C155.496 10.2872 156.319 10.2872 157.005 10.5649C160.16 11.3971 161.807 15.2819 160.16 18.1954C159.749 18.8885 159.2 19.3054 158.515 19.7217C158.241 19.8603 157.966 19.9989 157.554 20.2767C157.691 20.4153 157.828 20.4153 157.966 20.4153C160.161 21.1084 161.121 22.7738 161.258 24.8551C161.532 27.9071 159.613 30.1265 156.595 30.4048C155.634 30.5434 154.674 30.5434 153.851 30.5434H144.387V26.3814H146.17V14.172H144.387V10.0105C147.953 10.1491 151.245 10.1491 154.674 10.1491L154.674 10.1486ZM151.656 22.358V26.3814C151.661 26.4532 151.692 26.5208 151.742 26.5717C151.792 26.6226 151.859 26.6535 151.93 26.6586H154.262C154.811 26.6586 155.359 26.3814 155.633 25.8264C156.318 24.5778 155.633 22.9124 154.262 22.6352C153.439 22.358 152.616 22.358 151.656 22.358ZM151.656 18.4726C152.479 18.4726 153.165 18.4726 153.988 18.334C154.948 18.1954 155.497 17.3627 155.497 16.3914C155.497 15.42 154.948 14.5878 154.125 14.4487C153.303 14.3096 152.48 14.3101 151.657 14.3101L151.656 18.4726ZM201.858 19.8598H199.8C199.729 19.8649 199.662 19.8958 199.612 19.9467C199.562 19.9976 199.531 20.0652 199.526 20.137V25.4085C199.526 26.5184 200.211 27.0729 201.447 26.7956H201.721V30.1255C201.721 30.4027 201.721 30.5418 201.447 30.5418C199.938 30.819 198.429 30.9582 196.783 30.6804C195 30.2641 194.177 29.2933 194.177 27.4892V19.7217H193.633C192.811 19.7217 192.948 19.8603 192.948 19.0287V15.5655H194.594V12.7906C194.594 11.8193 194.457 11.9584 195.417 11.8193C196.799 11.5462 198.172 11.2222 199.531 10.8479V15.5649H202C201.863 17.0912 201.863 18.4789 201.863 19.8661L201.858 19.8598ZM185.673 21.3861V19.9989C185.673 19.1667 185.124 18.6118 184.439 18.6118C183.753 18.6118 183.067 19.1667 183.067 19.8603V20.4153H178.129C177.992 18.4726 178.952 16.8082 180.735 15.9755C183.341 14.8656 186.085 14.8656 188.69 16.1141C190.336 16.9463 191.159 18.1954 191.159 19.9995V26.2475H192.393V30.4095H186.216C186.216 29.8545 186.079 29.4382 186.079 28.7451C185.942 28.8837 185.805 29.0223 185.805 29.1615C184.16 31.1041 181.142 31.1041 179.496 30.2714C178.261 29.5784 177.713 28.3288 177.575 26.9416C177.438 23.8895 178.947 21.9469 182.102 21.3919L185.394 21.1147C185.257 21.3919 185.394 21.3919 185.668 21.3919L185.673 21.3861ZM185.673 24.0218H184.439C183.204 24.1604 182.655 25.1318 182.793 26.2417C182.93 27.213 183.753 27.768 184.714 27.3517C185.262 27.213 185.536 26.7967 185.674 26.2417L185.673 24.0218ZM176.894 24.1604H167.704C167.704 25.1318 167.704 25.964 168.253 26.6575C168.665 27.2125 169.213 27.3506 169.899 27.3506C170.584 27.3506 170.996 26.9342 171.27 26.3793L171.544 25.5471H176.619C176.482 27.2115 175.796 28.5992 174.424 29.5705C172.779 30.819 170.995 31.0968 169.075 30.9577C168.252 30.9577 167.566 30.819 166.743 30.5413C164.686 29.9863 163.451 28.5986 162.765 26.656C162.08 24.2975 161.943 21.939 162.902 19.5805C163.863 17.0834 165.783 15.6952 168.389 15.4185C169.624 15.2798 170.995 15.4185 172.23 15.6957C174.836 16.5279 176.208 18.4705 176.757 21.1068C176.757 22.0781 176.894 23.0494 176.894 24.1589L176.894 24.1604ZM171.545 21.3856C171.545 20.5534 171.408 19.7212 170.722 19.3043C170.036 18.8874 169.35 18.8879 168.664 19.4429C168.116 19.8593 167.979 20.5529 167.979 21.3856H171.545Z" fill="#949494"></path>
</svg>